<svg width="1010" height="217" viewBox="0 0 1010 217" fill="none" xmlns="http://www.w3.org/2000/svg">
<path d="M458.533 2.19984C457.067 3.79984 458.533 4.33317 464.267 4.33317H470.667V18.0665C470.667 30.8665 470.8 31.6665 473.333 31.6665C476 31.6665 476 30.9998 475.6 17.6665L475.067 3.6665H481.067C484.667 3.6665 487.333 4.33317 487.6 5.2665C488 6.19984 488.533 5.79984 488.933 4.33317C489.6 1.79984 488.8 1.6665 474.4 1.6665C466 1.6665 458.8 1.93317 458.533 2.19984Z" fill="#191923"/>
<path d="M493.733 2.59984C495.067 4.19984 495.333 8.59984 495.067 18.1998C494.667 31.3998 494.667 31.6665 497.733 31.6665C500.4 31.6665 500.667 30.9998 500.667 24.3332V16.8665L509.733 17.2665L518.667 17.6665V24.7332C518.667 30.9998 518.933 31.6665 521.733 31.6665C524.533 31.6665 524.667 31.2665 524.667 17.9332C524.667 10.3332 525.333 3.53317 526 2.8665C526.933 1.93317 526.133 1.6665 523.333 2.0665C519.467 2.59984 519.333 2.8665 519.333 9.13317V15.6665H509.867H500.4L500.933 8.99984C501.2 3.53317 500.933 2.33317 499.067 2.33317C497.867 2.33317 495.733 1.93317 494.4 1.39984C492.267 0.599836 492.267 0.733169 493.733 2.59984Z" fill="#191923"/>
<path d="M548.667 2.46628C550.4 3.26628 552.4 4.46628 552.933 5.39961C553.6 6.46628 554 5.93294 554 3.93294C554 1.53294 553.333 0.999611 549.733 1.13294C545.467 1.13294 545.467 1.26628 548.667 2.46628Z" fill="#191923"/>
<path d="M533.333 16.9998V31.6665L538.667 31.5332C541.6 31.3998 542.933 31.1332 541.733 30.7332C539.867 30.3332 539.333 28.7332 539.333 23.3998V16.7332L545.333 17.2665C548.8 17.5332 551.333 17.1332 551.333 16.3332C551.333 15.5332 548.8 15.1332 545.333 15.3998L539.333 15.9332V9.93317C539.333 6.33317 540 3.6665 541.067 3.2665C541.867 2.8665 540.533 2.4665 538 2.4665L533.333 2.33317V16.9998Z" fill="#191923"/>
<path d="M408.667 19.7998C402.4 20.4665 386 22.1998 372 23.6665C345.867 26.4665 303.333 28.7332 274 29.1332C264.8 29.2665 255.6 29.7998 253.333 30.3332C251.2 30.8665 292.667 31.3998 345.733 31.5332L442 31.6665V24.9998V18.3332L431.067 18.4665C424.933 18.5998 414.933 19.1332 408.667 19.7998Z" fill="#191923"/>
<path d="M576.667 24.9998V31.6665H672.8C736.4 31.6665 768.533 31.2665 768 30.3332C767.467 29.5332 759.6 28.9998 748.933 28.9998C722.133 28.9998 675.333 26.7332 652.933 24.3332C618.267 20.5998 592.133 18.3332 584.4 18.3332H576.667V24.9998Z" fill="#191923"/>
<path d="M554 28.1996C553.2 29.2663 551.2 30.4663 549.6 30.7329C547.467 31.1329 547.867 31.3996 550.8 31.5329C554 31.6663 555.2 30.9996 555.733 28.9996C556.533 25.7996 556.267 25.6663 554 28.1996Z" fill="#191923"/>
<path d="M24.9334 45.9329C5.33341 46.4662 1.73341 47.6662 11.3334 50.8662C18.4001 53.1329 19.8667 57.3996 20.4001 78.5996L20.9334 96.9996H17.3334C13.0667 96.9996 9.20008 95.1329 4.40008 90.5996C0.266748 86.7329 -0.266585 87.3996 2.66675 92.8662C5.20008 97.9329 12.1334 103.666 16.8001 104.6L20.6667 105.266V127.533C20.5334 152.333 19.7334 155.266 12.5334 157.666C10.0001 158.6 8.13342 159.666 8.26675 160.2C8.53342 160.733 21.7334 161.4 37.6001 161.666C70.9334 162.2 80.5334 160.866 91.0668 153.933C107.067 143.133 107.333 120.066 91.4668 108.466C85.3334 103.933 74.8001 99.6663 70.0001 99.6663C65.2001 99.6663 65.8668 97.1329 71.0668 95.6663C82.4001 92.7329 89.8668 84.8662 90.9334 74.9996C92.4001 63.1329 86.2668 53.2662 74.2668 48.1996C68.6668 45.7996 54.1334 45.1329 24.9334 45.9329ZM60.6668 54.7329C67.6001 59.2662 70.5334 65.3996 70.5334 74.9996C70.5334 88.3329 63.6001 94.9996 47.8668 96.5996L40.6668 97.3996V77.1329C40.6668 65.6662 41.3334 55.6662 42.0001 54.1996C44.1334 50.4662 54.8001 50.7329 60.6668 54.7329ZM62.9334 104.333C83.4668 110.466 88.9334 141.133 71.3334 152.066C67.4668 154.466 64.6668 155 55.7334 155C48.5334 155 44.2668 154.466 43.0668 153.266C41.8668 152.066 41.2001 144.733 40.8001 127L40.4001 102.333H48.2668C52.6668 102.333 59.2001 103.266 62.9334 104.333Z" fill="#191923"/>
<path d="M436.667 48.4664C436.667 49.3997 438.8 50.4664 441.333 50.8664C449.733 52.4664 450.4 54.5997 451.733 91.1331C453.2 129 452 151.266 448 155.666C446.667 157.133 444.133 158.333 442.4 158.333C440.8 158.333 439.333 159.133 439.333 159.933C439.333 161.266 444.667 161.666 461.733 161.666C474 161.666 485.6 162.2 487.733 162.733C490.8 163.533 491.333 163.266 491.333 161C491.333 158.866 490.4 158.333 487.333 158.333C480.667 158.333 475.6 154.866 474 149.266C473.067 146.333 472.667 136.333 472.933 125L473.333 105.666L485.333 106.066C503.333 106.6 508.667 109.133 508.667 116.866C508.667 118.6 509.467 119.666 510.8 119.666C512.267 119.666 512.667 119 512.133 117.533C511.733 116.333 511.333 108.733 511.333 100.733C511.333 85.9331 510.667 84.0664 508 92.0664C507.067 95.2664 505.467 96.7331 502 97.9331C497.067 99.5331 478.4 100.2 474.8 98.8664C472.933 98.1997 472.667 94.8664 472.667 76.3331V54.5997L482.933 53.6664C488.533 53.1331 498.133 53.2664 504.267 53.9331C517.6 55.6664 522 58.5997 522 65.9331C522 69.3997 522.533 70.4664 524 70.0664C525.733 69.7997 526.133 67.3997 526.4 58.3331L526.667 46.9997H481.6C448.933 46.9997 436.667 47.3997 436.667 48.4664Z" fill="#191923"/>
<path d="M118.267 58.0665C102.267 58.3332 96.6667 58.8665 96.9334 59.9332C97.3334 60.8665 99.3334 62.0665 101.6 62.5998C103.867 63.1332 106.267 64.7332 106.8 66.0665C108.133 68.5998 109.2 149.133 108.133 153.8C107.6 155.667 105.733 157.4 102.667 158.333C100.133 159.133 98 160.333 98 160.867C98 161.267 116 161.667 138 161.667H178L180.8 152.733C184 142.333 183.733 136.067 180.4 143.8C176.933 151.667 164.8 155.667 144.133 155.667C126.8 155.667 128 159.133 127.6 110.733C127.2 63.9332 127.333 63.6665 136.4 61.7998C141.467 60.7332 143.467 59.1332 141.067 58.0665C140.4 57.7998 130.267 57.7998 118.267 58.0665Z" fill="#191923"/>
<path d="M187.6 61.2663C185.867 67.533 165.733 120.733 158.8 137.533C153.2 151 153.067 151.666 155.867 151.666C160.4 151.666 161.6 150.066 165.467 139.666C167.333 134.2 169.6 128.866 170.267 127.933C171.2 126.866 176.4 126.333 187.333 126.333C198.267 126.333 203.467 126.866 204.267 127.933C206.533 130.733 212.8 151.8 212.4 154.733C212.133 156.466 210.667 157.8 208.8 158.333C206.933 158.733 205.2 159.933 204.933 160.866C204.4 162.333 205.333 162.6 208.667 161.933C211.067 161.4 220.133 161 228.8 161C238.533 161 244.667 160.466 244.667 159.666C244.667 158.866 243.467 158.333 241.867 158.333C236.267 158.333 232 151.4 221.733 125.666C208.667 93.2663 205.2 84.333 200.133 69.6663C196.4 58.9996 195.467 57.6663 192.4 57.2663C189.333 56.8663 188.667 57.533 187.6 61.2663ZM194.533 102.6C197.867 111.133 200.667 118.733 200.667 119.533C200.667 120.466 195.867 121 186.667 121C178.933 121 172.667 120.6 172.667 120.2C172.667 118.866 183.333 90.0663 184.933 87.2663C185.6 85.7996 186.8 85.2663 187.333 85.7996C188 86.4663 191.2 93.933 194.533 102.6Z" fill="#191923"/>
<path d="M269.334 58.3331C252.934 61.7997 238.134 72.9997 231.067 87.2664C220.934 108.066 226.4 135.533 243.867 149.533C256 159.4 272.4 164.466 288 163.133C296.534 162.466 314.534 158.333 316.134 156.6C316.534 156.2 317.6 152.466 318.667 148.2C319.6 143.8 320.934 139.266 321.334 137.933C322 136.466 321.6 135.666 320.534 135.666C319.467 135.666 317.067 138.6 315.067 142.333C307.734 155.4 291.2 160.466 274.8 154.333C265.067 150.6 257.6 143.266 252.134 131.666C248.667 124.333 248 121 247.6 110.2C246.667 89.2664 252.934 74.1997 265.6 66.7331C271.2 63.3997 273.334 62.9997 282.667 62.9997C291.467 63.1331 294.8 63.7997 301.334 66.7331C312.134 71.7997 314 73.6664 314 79.9331C314 83.2664 314.534 84.9997 315.867 84.9997C317.067 84.9997 317.867 82.3331 318.534 76.3331C319.067 71.5331 320 66.0664 320.8 64.1997C322 60.7331 321.867 60.7331 318.134 61.3997C315.867 61.9331 311.2 61.2664 307.734 60.1997C300.134 57.7997 276.934 56.5997 269.334 58.3331Z" fill="#191923"/>
<path d="M322.533 58.5998C322.133 59.1331 324 60.4665 326.533 61.5331C329.067 62.5998 331.733 64.5998 332.533 66.0665C334.4 69.3998 334.4 124.2 332.667 142.066C331.467 155.533 330.267 157.933 325.067 158.6C323.067 158.866 321.333 159.666 321.067 160.333C320.8 161.266 328.267 161.8 342.667 161.8C357.6 161.8 364.533 161.4 364.267 160.466C364 159.666 362.267 158.866 360.4 158.6C353.333 157.8 352 154.333 351.6 135.4C351.333 125.266 351.6 117.533 352.4 116.733C353.333 115.8 360.533 122.066 373.2 134.333C392 152.733 396 158.333 390.133 158.333C387.867 158.333 384.933 160.733 386.133 161.4C386.4 161.533 396.267 161.4 408 161L429.333 160.333L423.733 157C418.667 153.933 401.2 138.2 375.333 113.4L365.333 103.666L376.8 92.7331C402.4 67.9331 406.667 64.3331 412.4 62.5998C421.067 59.9331 419.467 57.7998 409.867 58.8665C405.333 59.2665 397.733 59.6665 393.2 59.6665C384 59.6665 382.267 61.2665 388.667 63.5331C391.067 64.3331 392.667 65.7998 392.667 67.1331C392.667 69.3998 355.867 107.666 353.733 107.666C352 107.666 352.4 70.8665 354.267 66.9998C355.2 64.7331 357.467 63.1331 360.933 62.3331C363.733 61.5331 366 60.3331 366 59.6665C366 58.1998 323.333 57.2665 322.533 58.5998Z" fill="#191923"/>
<path d="M546.267 60.5998C545.467 62.5998 543.067 69.3998 540.933 75.6665C534.933 92.7331 516.133 140.866 512.667 147.666C508.933 155.266 504.933 159.666 501.867 159.666C500.533 159.666 499.2 160.2 498.8 160.733C498.4 161.4 506.267 161.933 516.133 161.933C526 162.066 534 161.666 534 161.266C534 160.733 531.2 159.4 527.6 158.333C522.133 156.6 521.333 155.8 520.933 152.333C520.8 150.066 522.4 143.533 524.533 137.666L528.4 127H545.467H562.667L566.933 139C572 153.133 572 157.266 567.467 158.333C565.6 158.733 564 159.666 563.733 160.333C563.467 161.133 573.467 161.666 590.267 161.666C605.2 161.666 620.267 161.933 623.867 162.333C631.333 163 634 160.466 627.467 159C620.267 157.4 619.333 154.6 619.333 132.733V113H625.2C630 113 631.333 113.533 632 115.666C633.467 120.2 645.867 142.066 652.133 151C660.533 163.133 670.533 173.8 679.867 180.6L687.6 186.333H603.6H519.6L518.8 189.666C517.867 193.4 510.933 198.333 506.667 198.333C502.267 198.333 495.467 193.4 494.533 189.533L493.6 185.933L328.4 186.6C167.467 187.133 162.933 187.133 158.267 184.6C153.733 182.2 153.2 182.2 146.133 184.333C140.8 185.933 131.467 186.733 114.4 187.266C94.9333 187.933 90 188.333 90 189.8C90 191.133 92.1333 191.666 98 191.666C117.867 191.666 143.467 200.6 154.933 211.533C157.467 213.933 163.333 215.533 163.333 213.666C163.333 213.4 162.133 210.733 160.533 207.8C158.8 204.466 158.133 201.4 158.667 199.533C160.667 193.266 161.467 193.133 276.933 191.533C336.533 190.733 391.6 190.466 399.333 191C429.467 192.733 444.533 196.066 474.4 207.533C485.467 211.8 497.733 215.8 501.333 216.2C510.667 217.4 519.867 215.4 538.667 207.8C556.4 200.466 569.6 196.6 588 193.266C598.533 191.266 610.667 191.133 691.333 191.4C741.6 191.666 797.467 192.333 815.6 192.733L848.667 193.666L852.267 197.266L855.867 201L853.067 206.866C851.467 210.066 850.533 213.133 850.933 213.533C852.533 215.133 855.467 214.333 858.4 211.533C870 200.466 895.333 191.666 915.467 191.666C921.2 191.666 923.333 191.133 923.333 189.8C923.333 188.333 918.4 187.933 899.067 187.266C881.6 186.866 872.667 185.933 867.467 184.333C860.4 182.2 860 182.2 854.4 185L848.667 187.8L777.2 186.866L705.733 185.933L698 180.733C680.933 169.4 662.933 144.866 652.133 118.466L648.933 110.466L653.067 109.133C667.867 103.933 674.933 88.4665 668.8 74.8665C663.333 62.8665 653.867 58.0665 635.333 57.9331C608.267 57.7998 587.333 58.9998 587.333 60.5998C587.333 61.6665 588.933 62.3331 591.067 62.3331C593.2 62.3331 596 63.1331 597.467 64.1998C599.867 66.0665 600 68.3331 600.4 110.866C600.8 151.933 600.667 155.8 598.533 156.6C597.333 157 595.333 156.866 594.133 156.066C592 154.733 563.733 86.3331 557.733 67.6665C554.8 58.9998 554 57.6665 551.067 57.2665C548.4 56.9998 547.333 57.6665 546.267 60.5998ZM643.467 67.1331C649.067 72.3331 651.333 78.0665 651.333 87.2665C651.333 95.5331 648.267 102.333 643.6 104.866C639.067 107.266 628.133 109.133 623.733 108.333L619.333 107.533V87.9331C619.333 63.1331 620 61.7998 631.467 62.5998C637.867 62.9998 640.133 63.9331 643.467 67.1331ZM552.8 102.066C556.4 111.133 559.333 119 559.333 119.8C559.333 121.266 531.333 121.533 531.333 119.933C531.2 117.133 544 84.9998 545.067 85.3998C545.733 85.5331 549.2 93.1331 552.8 102.066Z" fill="#191923"/>
<path d="M920.667 58.4664C914.4 59.133 906.133 59.3997 902.4 58.8664C896.533 58.333 895.333 58.4664 895.333 60.1997C895.333 61.6664 896.533 62.333 899.067 62.333C907.867 62.4664 908.533 65.6664 908.533 113.666C908.667 154.866 908.4 156.466 900.8 159C893.733 161.4 893.733 163.933 900.933 162.733C907.867 161.4 930.267 161.4 936.4 162.733C939.6 163.4 940.667 163.133 940.667 161.8C940.667 160.6 938.533 159.533 935.333 159C932.133 158.466 929.467 157.133 928.667 155.666C927.867 154.333 927.333 144.2 927.333 133.133V113H932.533C937.733 113 937.867 113.133 946 126.333C962.533 153.266 977.334 164.733 997.6 166.066C1005.6 166.6 1007.6 166.333 1007.07 164.866C1006.8 163.933 1004.4 162.6 1001.87 161.933C991.334 159.266 976.934 144.466 963.333 122.466C958 113.8 956.8 111 958.267 110.2C959.2 109.533 960.667 109 961.333 109C964 108.866 973.334 100.733 975.6 96.5997C978.4 91.3997 978.667 79.7997 976.134 73.933C970.267 60.1997 951.6 54.9997 920.667 58.4664ZM948.4 64.9997C959.867 71.933 963.067 92.5997 954.267 102.066C950 106.6 938 109.8 931.333 108.333L927.333 107.4V86.333C927.333 67.533 927.6 64.9997 929.733 63.7997C933.6 61.3997 943.6 62.0664 948.4 64.9997Z" fill="#191923"/>
<path d="M664.667 59.6666C664.667 60.3333 666.133 61 667.867 61C672.933 61 678.533 63.5333 680.667 66.7333C684.533 72.7333 683.467 132.733 679.2 149.933C677.733 155.267 677.867 156.2 680.133 158.333C683.067 161.267 702 163.8 702 161.267C702 160.467 699.867 159.4 697.333 158.867C694.533 158.333 691.467 156.6 689.867 154.467C687.067 151.133 687.067 150.2 687.867 120.333C688.667 88.0666 689.6 76.6 691.333 77.6666C692.933 78.7333 726 144.6 729.333 153.667C731.067 158.067 733.067 161.667 734 161.667C734.8 161.667 737.467 156.867 739.867 151C744.4 139.933 765.2 98.2 773.067 84.4666L777.6 76.7333L778.4 87.1333C779.867 103 779.467 142.467 778 147.933C776.267 154.067 773.6 156.867 768.533 157.933C766.4 158.333 764.667 159.4 764.667 160.2C764.667 161.267 782 161.667 828 161.667H891.467L894.667 151.267C896.533 145.533 898 139.933 898 138.867C898 136.2 895.467 136.467 894.4 139.267C892.533 144.467 886.933 150.2 881.6 152.333C875.2 155 856 156.467 846.8 155.133L840.667 154.2V133.133V112.067L846.267 111.133C849.333 110.6 856.8 110.6 863.067 111.133C875.467 112.2 878.4 113.933 879.867 121.267C881.333 128.867 882.4 123.933 882.667 108.333C882.8 93.8 881.733 89 879.867 96.2C878.133 103.133 875.067 104.333 857.2 104.867L840.667 105.267V85.2666C840.667 65.6666 840.667 65.2666 843.733 64.4666C848.667 63.1333 874.933 63.5333 878.933 65.1333C883.6 66.8666 884.667 68.4666 884.667 73.9333C884.667 76.3333 885.333 78.3333 886 78.3333C887.733 78.3333 888 77.2666 889.6 66.6L890.8 58.2L835.467 58.6L780 59L774.933 69C759.333 100.067 742.933 131.267 741.467 132.733C740 134.2 737.067 129.533 725.067 106.733C717.067 91.5333 708.4 74.3333 706 68.6L701.467 58.3333H683.067C671.733 58.3333 664.667 58.8666 664.667 59.6666ZM815.067 62.4666C822 64.8666 822.533 68.6 821.733 111.667C820.933 157.133 820.8 157.4 810.4 158.067C804.8 158.333 803.067 157.933 800.933 155.667C797.067 151.4 796.667 147.8 795.867 107C795.067 70.3333 795.067 69.6666 797.867 66.0666C799.867 63.6666 802.267 62.3333 805.733 61.9333C808.4 61.6666 810.667 61.4 810.8 61.2666C810.933 61.1333 812.8 61.6666 815.067 62.4666Z" fill="#191923"/>
<path d="M1004.4 131.266C1005.2 131.533 1006.8 131.533 1007.73 131.266C1008.53 130.866 1007.87 130.6 1006 130.6C1004.13 130.6 1003.47 130.866 1004.4 131.266Z" fill="#191923"/>
<path d="M997.2 134.6L994.667 137.667L997.733 135.133C999.333 133.667 1000.67 132.333 1000.67 132.067C1000.67 131 999.6 131.8 997.2 134.6Z" fill="#191923"/>
<path d="M1002.4 141.666C1002.4 145.266 1002.67 146.733 1002.93 144.6C1003.2 142.6 1003.2 139.666 1002.93 137.933C1002.67 136.333 1002.4 137.933 1002.4 141.666Z" fill="#191923"/>
<path d="M1008.93 138.333C1008.93 140.2 1009.2 140.867 1009.6 139.933C1009.87 139.133 1009.87 137.533 1009.6 136.6C1009.2 135.8 1008.93 136.467 1008.93 138.333Z" fill="#191923"/>
<path d="M994.267 141.667C994.267 143.8 994.534 144.6 994.934 143.267C995.2 142.067 995.2 140.2 994.934 139.267C994.534 138.467 994.267 139.4 994.267 141.667Z" fill="#191923"/>
<path d="M1007.33 143.266C1007.33 143.8 1008 145.266 1008.67 146.333C1009.73 148.066 1010 148.066 1010 146.066C1010 144.866 1009.47 143.4 1008.67 143C1008 142.6 1007.33 142.6 1007.33 143.266Z" fill="#191923"/>
<path d="M1003.73 152.6C1004.93 152.866 1006.8 152.866 1007.73 152.6C1008.53 152.2 1007.6 151.933 1005.33 151.933C1003.2 151.933 1002.4 152.2 1003.73 152.6Z" fill="#191923"/>
</svg>
