<svg width="952" height="265" viewBox="0 0 952 265" fill="none" xmlns="http://www.w3.org/2000/svg">
<path d="M0.666553 1.80031C0.266553 2.86698 0.133219 62.2003 0.266553 133.667L0.666553 263.667H51.9999C108.8 263.534 116.533 262.734 135.6 254.734C160.267 244.467 177.867 228.067 191.333 202.6C210 167.134 213.333 120.067 199.867 79.5336C187.2 41.667 155.6 11.0003 121.333 3.66698C107.2 0.600312 1.73322 -0.999688 0.666553 1.80031ZM109.467 64.7336C130.133 74.7336 141.333 98.3337 141.333 131.534C141.333 150.067 139.2 160.734 133.2 172.734C121.6 195.8 106.667 204.334 77.7332 204.334H63.9999V132.2V60.067L83.0666 60.467C100.533 61.0003 102.533 61.267 109.467 64.7336Z" fill="#191923"/>
<path d="M259.333 1.93365C258.933 2.86698 258.8 62.2003 258.933 133.667L259.333 263.667H342H424.667L425.067 235.267L425.333 207H373.333H321.333V183V159L361.733 158.734L402 158.334V131.667V105L361.733 104.6L321.333 104.334V81.0003V57.667H369.333H417.333L417.067 29.267L416.667 1.00031L338.267 0.600312C276.267 0.333645 259.733 0.600312 259.333 1.93365Z" fill="#191923"/>
<path d="M482.667 132.333V264.333H559.333H636V233.667V203H592.667H549.333L549.067 101.933L548.667 1.00015L515.733 0.600149L482.667 0.333482V132.333Z" fill="#191923"/>
<path d="M682 1.93348C681.6 2.86682 681.466 62.2002 681.6 133.667L682 263.667L758.4 264.067L834.666 264.333V233.667V203H791.333H748V101.667V0.333482H715.333C690.4 0.333482 682.4 0.733482 682 1.93348Z" fill="#191923"/>
<path d="M882.667 132.333V264.333L917.067 264.067L951.333 263.667V132.333V1.00015L917.067 0.600149L882.667 0.333482V132.333Z" fill="#191923"/>
</svg>
