<?xml version="1.0" encoding="UTF-8"?>
<svg id="Layer_1" data-name="Layer 1" xmlns="http://www.w3.org/2000/svg" viewBox="0 0 820 173.38">
  <defs>
    <style>
      .cls-1 {
        fill: #517153;
      }

      .cls-2 {
        fill: #dbefdd;
      }

      .cls-3 {
        fill: #e5bd69;
      }

      .cls-4 {
        fill: #f5e9bf;
      }

      .cls-5 {
        fill: #b9bb39;
      }
    </style>
  </defs>
  <path class="cls-5" d="M244,23c15.8,0,28.23-5.22,29-23-10.69,0-20.89,1.04-26.08,12-1.64,3.45-2.02,7.33-2.92,11Z"/>
  <path class="cls-2" d="M238,36h6c-.45-10.48-4.67-18.73-9-28-3.72.75-9.26,3.16-8.25,8,.64,3.06,3.71,5.54,5.46,8,2.6,3.66,4.55,7.71,5.79,12Z"/>
  <path class="cls-4" d="M330,28v24h27v-24h-27Z"/>
  <path class="cls-1" d="M226,36v29h-14v25h14v81h27v-81h14v-25h-14v-29h-27Z"/>
  <path class="cls-1" d="M301,74c-.9-3.04-.99-5.83-1-9h-27v106h27v-44c0-7.86-1.06-16.61,2.21-24,4.08-9.21,13.38-12.6,22.79-13v-27c-8.83.18-19.79,2.38-24,11"/>
  <path class="cls-1" d="M27,75v-9H0v105h27v-45c0-7.37-1.32-16.15,1.92-23,7.77-16.41,30.36-18.98,40.08-3,4.26,7,3.01,16.18,3.01,24v47h27v-48c0-11.88.47-23.89-4.44-35-11.49-25.98-47.53-32.11-67.56-13"/>
  <path class="cls-1" d="M107,65v49c0,11.38-.73,23.28,3.88,34,11.36,26.45,47.54,33.64,68.12,14v9h27v-106h-27v45c0,7.86,1.06,16.61-2.21,24-7.21,16.29-29.12,18.93-39.08,4-4.88-7.3-3.7-16.68-3.7-25v-48h-27"/>
  <rect class="cls-1" x="330" y="65" width="27" height="106"/>
  <path class="cls-3" d="M390,79v-12h-15v104h15v-45c0-9.81-.59-20.12,4.35-29,12.13-21.82,44.39-22.14,55.32,1,4.18,8.86,3.33,18.48,3.33,28v45h15v-47c0-10.83.7-21.67-3.23-32-11.86-31.15-52.62-34.14-74.77-13"/>
  <path class="cls-3" d="M620,78v-11h-15v104h15v-48c0-8.71-.95-18.11,3.53-26,12.27-21.6,44.77-22.44,55.57,1,3.92,8.51,2.9,17.88,2.9,27v46h15v-47c0-10.49.89-20.96-2.7-31-7.9-22.11-32.37-32.12-54.3-26.24-7.63,2.05-13.89,6.4-20,11.24"/>
  <path class="cls-3" d="M576,67v15c-9.04-7.88-18.92-14.29-31-16-9.45-1.34-18.84-.94-28,2.09-7.41,2.45-14.38,6.54-20,11.95-5.43,5.22-9.62,11.09-12.69,17.96-2.02,4.52-2.89,9.13-3.58,14-5.66,39.58,33.72,70.42,71.27,58.96,9.36-2.86,17.07-8.18,24-14.96v15h15v-104h-15ZM568.78,142c-2.88,4.16-6.51,7.43-10.78,10.12-4.52,2.86-9.69,4.81-15,5.58-8.56,1.23-18.09.37-26-3.22-20.74-9.41-28.34-37.53-15.89-56.48,6.7-10.19,17.09-15.72,28.89-17.56,33.91-5.3,58.26,33.4,38.78,61.56Z"/>
  <path class="cls-3" d="M805,67v15c-8.72-8.34-18.93-14.29-31-16-9.2-1.3-18.08-.81-27,2.03-7.24,2.3-14.31,6.1-20,11.16-22.06,19.62-23.11,56.5-2.58,77.53,14.6,14.95,37.71,20.18,57.57,14.08,9.16-2.81,16.27-8.12,23-14.79v15h15v-104h-15ZM799.53,140c-2.92,4.73-6.97,8.64-11.53,11.78-4.46,3.06-9.64,5.15-15,5.92-10.84,1.56-22.88.06-32-6.32-18.1-12.67-21.94-40.28-7.68-57.37,6.46-7.74,15.85-12.02,25.67-13.56,32.44-5.11,58.1,31.11,40.53,59.56Z"/>
</svg>