<svg version="1.1" id="Layer_1" xmlns="http://www.w3.org/2000/svg" xmlns:xlink="http://www.w3.org/1999/xlink" x="0px" y="0px"
	 width="100%" viewBox="0 0 500 500" enable-background="new 0 0 500 500" xml:space="preserve">
<path fill="#FEFEFD" opacity="1.000000" stroke="none" 
	d="
M501.000000,37.000000 
	C501.000000,179.356659 501.000000,321.713318 500.674561,464.240051 
	C499.903534,465.041687 499.269043,465.611664 499.040131,466.313843 
	C494.174683,481.239197 484.508545,491.641602 469.962860,497.597107 
	C468.148346,498.340088 466.646637,499.847015 465.000000,501.000000 
	C322.643341,501.000000 180.286682,501.000000 37.759945,500.674561 
	C37.266670,499.975403 37.011654,499.385803 36.610458,499.259094 
	C19.673685,493.911011 8.215682,483.062714 2.898166,465.943329 
	C2.753404,465.477325 1.654146,465.307800 0.999995,465.000000 
	C1.000000,322.643341 1.000000,180.286682 1.325462,37.759941 
	C2.024607,37.266663 2.616141,37.011154 2.740615,36.610531 
	C8.023196,19.608551 18.932467,8.210881 36.056721,2.898140 
	C36.522602,2.753601 36.692226,1.654155 37.000000,1.000000 
	C179.356659,1.000000 321.713318,1.000000 464.240051,1.325471 
	C464.733307,2.024615 464.989838,2.619912 465.389313,2.740067 
	C482.520081,7.893285 493.662964,19.060041 499.101196,36.056313 
	C499.251282,36.525368 500.345856,36.692226 501.000000,37.000000 
M403.340485,77.499939 
	C403.287140,103.323387 403.880005,129.168625 403.010406,154.964539 
	C402.012238,184.575623 372.105042,206.543137 339.961945,196.032715 
	C321.397461,189.962341 311.075989,174.097229 311.050262,154.350616 
	C310.999054,115.029327 310.943512,75.707466 311.148407,36.387184 
	C311.174225,31.433268 310.082977,29.711706 304.855774,29.848581 
	C291.036133,30.210443 277.197327,30.144951 263.373535,29.874327 
	C258.633392,29.781528 257.070099,31.117716 257.092804,36.035294 
	C257.277313,76.022255 257.063080,116.011162 257.279633,155.997803 
	C257.343628,167.820679 258.716248,179.660599 263.067230,190.763992 
	C275.246185,221.843964 297.343262,240.811264 330.819397,246.234558 
	C356.660309,250.420898 379.611969,245.213821 399.362091,227.584076 
	C400.248962,226.792404 401.358032,226.249695 403.340576,224.951096 
	C403.340576,230.306702 403.541718,234.584381 403.279053,238.833389 
	C403.055389,242.451950 404.155212,243.875565 407.994843,243.829544 
	C422.654938,243.653793 437.319855,243.645859 451.979584,243.836395 
	C455.831879,243.886459 456.745819,242.464935 456.713318,238.873108 
	C456.561005,222.046280 456.645721,205.217300 456.645721,188.389099 
	C456.645721,137.571259 456.599518,86.753304 456.727509,35.935787 
	C456.738556,31.548836 455.828766,29.746136 450.968475,29.857410 
	C436.980072,30.177671 422.977570,30.103882 408.985077,29.890991 
	C404.711975,29.825977 403.150574,31.005486 403.241180,35.514416 
	C403.515625,49.171406 403.340759,62.837421 403.340485,77.499939 
M103.159523,92.692513 
	C119.645706,72.290237 151.614441,70.854355 169.336685,85.089912 
	C181.840881,95.134010 185.863007,108.817513 185.915024,124.029289 
	C186.045013,162.028442 186.017120,200.028549 185.876312,238.027618 
	C185.860718,242.234741 186.768860,243.948547 191.371048,243.858566 
	C205.365540,243.584946 219.371765,243.598663 233.366913,243.854996 
	C237.714981,243.934647 238.595108,242.326920 238.583374,238.353745 
	C238.462204,197.354538 238.539459,156.354813 238.493668,115.355293 
	C238.475327,98.930901 234.850418,83.342346 226.451614,69.143753 
	C212.780869,46.032742 192.756653,32.301430 166.056000,27.831404 
	C139.253235,23.344284 115.557678,28.511786 95.654007,47.781227 
	C95.047508,48.368393 94.049835,48.551517 92.118065,49.431744 
	C92.118065,44.530800 91.944862,40.445202 92.167717,36.381325 
	C92.382271,32.468933 90.847755,31.081432 86.933998,31.135302 
	C74.603142,31.305033 62.261841,31.430676 49.938553,31.081074 
	C45.086891,30.943436 44.160778,32.710350 44.168564,37.117809 
	C44.286961,104.116882 44.248943,171.116226 44.261322,238.115509 
	C44.261646,239.870041 44.417587,241.624557 44.519043,243.759689 
	C58.731613,243.759689 72.377731,243.572632 86.013786,243.861298 
	C90.780083,243.962189 92.250641,242.611481 92.225433,237.724548 
	C92.031204,200.059296 92.083138,162.392517 92.139709,124.726334 
	C92.157173,113.099052 94.960503,102.326302 103.159523,92.692513 
M343.509644,472.135864 
	C373.079620,473.108002 397.361725,461.142700 418.555298,440.940186 
	C419.144440,448.903259 419.304840,456.342773 419.078033,463.770538 
	C418.961304,467.592804 420.090790,469.251465 424.146973,469.044006 
	C429.463654,468.772125 434.821686,468.718994 440.129974,469.063660 
	C444.216797,469.328979 445.196411,467.803925 445.151093,463.941711 
	C444.963379,447.952026 445.072601,431.958862 445.072601,415.966980 
	C445.072632,371.822723 445.017273,327.678314 445.160889,283.534515 
	C445.174744,279.277496 444.254974,277.481689 439.663208,277.837585 
	C434.529938,278.235413 429.332397,278.126007 424.181274,277.868652 
	C420.153625,277.667389 418.940918,279.311859 419.081207,283.149261 
	C419.312347,289.470825 419.168182,295.807404 419.111908,302.137054 
	C419.101624,303.295135 418.756653,304.450256 418.476990,306.148163 
	C402.910004,290.504456 385.640381,279.610291 364.351776,275.858826 
	C332.814331,270.301331 304.124542,276.546631 279.328247,297.145569 
	C247.306580,323.746826 237.454758,358.484985 246.479767,398.028107 
	C256.340698,441.233765 297.629913,472.094421 343.509644,472.135864 
M173.570984,313.906921 
	C176.760300,317.495087 180.369125,320.795959 183.059891,324.725525 
	C190.964767,336.269653 193.202805,349.369934 193.140335,363.147400 
	C192.989227,396.473358 193.174805,429.800903 192.995819,463.126556 
	C192.970810,467.780304 194.386124,469.365387 198.988098,469.059204 
	C204.130966,468.717041 209.336578,468.682129 214.473022,469.069061 
	C219.012772,469.411041 220.011780,467.723236 219.989532,463.406677 
	C219.815903,429.747681 220.128601,396.084686 219.743561,362.429199 
	C219.634140,352.865753 218.633759,343.108154 216.451050,333.813141 
	C211.065079,310.876892 197.189392,293.962921 176.695236,282.625702 
	C163.217545,275.169952 148.450333,273.470123 133.253677,274.012543 
	C114.764900,274.672485 98.567574,280.976410 84.496254,292.922333 
	C82.206055,294.866669 79.782593,296.654022 76.175385,299.494568 
	C76.175385,293.421844 76.177200,288.992004 76.174965,284.562164 
	C76.171623,277.937469 76.170410,277.934662 69.828354,277.928314 
	C65.162628,277.923615 60.472469,278.224548 55.838058,277.843597 
	C51.224617,277.464355 49.935459,279.024475 49.961090,283.664276 
	C50.153488,318.489532 50.065861,353.316345 50.065857,388.142670 
	C50.065857,413.137634 50.161110,438.133301 49.976170,463.126892 
	C49.943714,467.512878 50.810783,469.517761 55.685658,469.079498 
	C60.644573,468.633667 65.696716,468.691223 70.667221,469.067505 
	C75.073654,469.401031 76.301628,467.980377 76.277946,463.528137 
	C76.092674,428.702789 76.016556,393.874939 76.259377,359.050293 
	C76.347725,346.380157 79.686775,334.434235 87.388107,324.058594 
	C98.251152,309.423309 112.861252,301.737671 131.011520,300.380463 
	C146.796631,299.200073 160.997162,302.758759 173.570984,313.906921 
z"/>
<path fill="#000000" opacity="1.000000" stroke="none" 
	d="
M465.468658,501.000000 
	C466.646637,499.847015 468.148346,498.340088 469.962860,497.597107 
	C484.508545,491.641602 494.174683,481.239197 499.040131,466.313843 
	C499.269043,465.611664 499.903534,465.041687 500.674561,464.705078 
	C501.000000,476.926605 501.000000,488.853210 501.000000,501.000000 
	C489.313354,501.000000 477.625336,501.000000 465.468658,501.000000 
z"/>
<path fill="#000000" opacity="1.000000" stroke="none" 
	d="
M0.999995,465.468689 
	C1.654146,465.307800 2.753404,465.477325 2.898166,465.943329 
	C8.215682,483.062714 19.673685,493.911011 36.610458,499.259094 
	C37.011654,499.385803 37.266670,499.975403 37.294930,500.674561 
	C25.073397,501.000000 13.146791,501.000000 1.000000,501.000000 
	C1.000000,489.313354 1.000000,477.625336 0.999995,465.468689 
z"/>
<path fill="#000000" opacity="1.000000" stroke="none" 
	d="
M36.531342,1.000000 
	C36.692226,1.654155 36.522602,2.753601 36.056721,2.898140 
	C18.932467,8.210881 8.023196,19.608551 2.740615,36.610531 
	C2.616141,37.011154 2.024607,37.266663 1.325462,37.294930 
	C1.000000,25.073397 1.000000,13.146794 1.000000,1.000000 
	C12.686640,1.000000 24.374662,1.000000 36.531342,1.000000 
z"/>
<path fill="#000000" opacity="1.000000" stroke="none" 
	d="
M501.000000,36.531342 
	C500.345856,36.692226 499.251282,36.525368 499.101196,36.056313 
	C493.662964,19.060041 482.520081,7.893285 465.389313,2.740067 
	C464.989838,2.619912 464.733307,2.024615 464.705078,1.325471 
	C476.926605,1.000000 488.853210,1.000000 501.000000,1.000000 
	C501.000000,12.686641 501.000000,24.374662 501.000000,36.531342 
z"/>
<path fill="#537456" opacity="1.000000" stroke="none" 
	d="
M403.340698,76.999931 
	C403.340759,62.837421 403.515625,49.171406 403.241180,35.514416 
	C403.150574,31.005486 404.711975,29.825977 408.985077,29.890991 
	C422.977570,30.103882 436.980072,30.177671 450.968475,29.857410 
	C455.828766,29.746136 456.738556,31.548836 456.727509,35.935787 
	C456.599518,86.753304 456.645721,137.571259 456.645721,188.389099 
	C456.645721,205.217300 456.561005,222.046280 456.713318,238.873108 
	C456.745819,242.464935 455.831879,243.886459 451.979584,243.836395 
	C437.319855,243.645859 422.654938,243.653793 407.994843,243.829544 
	C404.155212,243.875565 403.055389,242.451950 403.279053,238.833389 
	C403.541718,234.584381 403.340576,230.306702 403.340576,224.951096 
	C401.358032,226.249695 400.248962,226.792404 399.362091,227.584076 
	C379.611969,245.213821 356.660309,250.420898 330.819397,246.234558 
	C297.343262,240.811264 275.246185,221.843964 263.067230,190.763992 
	C258.716248,179.660599 257.343628,167.820679 257.279633,155.997803 
	C257.063080,116.011162 257.277313,76.022255 257.092804,36.035294 
	C257.070099,31.117716 258.633392,29.781528 263.373535,29.874327 
	C277.197327,30.144951 291.036133,30.210443 304.855774,29.848581 
	C310.082977,29.711706 311.174225,31.433268 311.148407,36.387184 
	C310.943512,75.707466 310.999054,115.029327 311.050262,154.350616 
	C311.075989,174.097229 321.397461,189.962341 339.961945,196.032715 
	C372.105042,206.543137 402.012238,184.575623 403.010406,154.964539 
	C403.880005,129.168625 403.287140,103.323387 403.340698,76.999931 
z"/>
<path fill="#537356" opacity="1.000000" stroke="none" 
	d="
M102.939407,92.977036 
	C94.960503,102.326302 92.157173,113.099052 92.139709,124.726334 
	C92.083138,162.392517 92.031204,200.059296 92.225433,237.724548 
	C92.250641,242.611481 90.780083,243.962189 86.013786,243.861298 
	C72.377731,243.572632 58.731613,243.759689 44.519043,243.759689 
	C44.417587,241.624557 44.261646,239.870041 44.261322,238.115509 
	C44.248943,171.116226 44.286961,104.116882 44.168564,37.117809 
	C44.160778,32.710350 45.086891,30.943436 49.938553,31.081074 
	C62.261841,31.430676 74.603142,31.305033 86.933998,31.135302 
	C90.847755,31.081432 92.382271,32.468933 92.167717,36.381325 
	C91.944862,40.445202 92.118065,44.530800 92.118065,49.431744 
	C94.049835,48.551517 95.047508,48.368393 95.654007,47.781227 
	C115.557678,28.511786 139.253235,23.344284 166.056000,27.831404 
	C192.756653,32.301430 212.780869,46.032742 226.451614,69.143753 
	C234.850418,83.342346 238.475327,98.930901 238.493668,115.355293 
	C238.539459,156.354813 238.462204,197.354538 238.583374,238.353745 
	C238.595108,242.326920 237.714981,243.934647 233.366913,243.854996 
	C219.371765,243.598663 205.365540,243.584946 191.371048,243.858566 
	C186.768860,243.948547 185.860718,242.234741 185.876312,238.027618 
	C186.017120,200.028549 186.045013,162.028442 185.915024,124.029289 
	C185.863007,108.817513 181.840881,95.134010 169.336685,85.089912 
	C151.614441,70.854355 119.645706,72.290237 102.939407,92.977036 
z"/>
<path fill="#E6BF6C" opacity="1.000000" stroke="none" 
	d="
M343.014587,472.135986 
	C297.629913,472.094421 256.340698,441.233765 246.479767,398.028107 
	C237.454758,358.484985 247.306580,323.746826 279.328247,297.145569 
	C304.124542,276.546631 332.814331,270.301331 364.351776,275.858826 
	C385.640381,279.610291 402.910004,290.504456 418.476990,306.148163 
	C418.756653,304.450256 419.101624,303.295135 419.111908,302.137054 
	C419.168182,295.807404 419.312347,289.470825 419.081207,283.149261 
	C418.940918,279.311859 420.153625,277.667389 424.181274,277.868652 
	C429.332397,278.126007 434.529938,278.235413 439.663208,277.837585 
	C444.254974,277.481689 445.174744,279.277496 445.160889,283.534515 
	C445.017273,327.678314 445.072632,371.822723 445.072601,415.966980 
	C445.072601,431.958862 444.963379,447.952026 445.151093,463.941711 
	C445.196411,467.803925 444.216797,469.328979 440.129974,469.063660 
	C434.821686,468.718994 429.463654,468.772125 424.146973,469.044006 
	C420.090790,469.251465 418.961304,467.592804 419.078033,463.770538 
	C419.304840,456.342773 419.144440,448.903259 418.555298,440.940186 
	C397.361725,461.142700 373.079620,473.108002 343.014587,472.135986 
M378.436981,439.064850 
	C389.639740,433.688263 398.849304,425.694489 405.975433,415.761108 
	C418.683868,398.046356 421.668976,378.225433 417.404358,356.918274 
	C413.632843,338.074493 403.421783,323.766235 387.985260,313.005005 
	C371.828156,301.741486 353.665588,298.573730 334.336090,300.767517 
	C312.509583,303.244720 295.080719,313.238312 282.262604,331.112396 
	C271.998688,345.424866 268.875641,361.578583 269.844696,378.877014 
	C270.912872,397.944214 278.239685,414.299286 292.475952,426.705872 
	C317.962555,448.916870 346.912048,451.241760 378.436981,439.064850 
z"/>
<path fill="#E6BF6C" opacity="1.000000" stroke="none" 
	d="
M173.314728,313.658875 
	C160.997162,302.758759 146.796631,299.200073 131.011520,300.380463 
	C112.861252,301.737671 98.251152,309.423309 87.388107,324.058594 
	C79.686775,334.434235 76.347725,346.380157 76.259377,359.050293 
	C76.016556,393.874939 76.092674,428.702789 76.277946,463.528137 
	C76.301628,467.980377 75.073654,469.401031 70.667221,469.067505 
	C65.696716,468.691223 60.644573,468.633667 55.685658,469.079498 
	C50.810783,469.517761 49.943714,467.512878 49.976170,463.126892 
	C50.161110,438.133301 50.065857,413.137634 50.065857,388.142670 
	C50.065861,353.316345 50.153488,318.489532 49.961090,283.664276 
	C49.935459,279.024475 51.224617,277.464355 55.838058,277.843597 
	C60.472469,278.224548 65.162628,277.923615 69.828354,277.928314 
	C76.170410,277.934662 76.171623,277.937469 76.174965,284.562164 
	C76.177200,288.992004 76.175385,293.421844 76.175385,299.494568 
	C79.782593,296.654022 82.206055,294.866669 84.496254,292.922333 
	C98.567574,280.976410 114.764900,274.672485 133.253677,274.012543 
	C148.450333,273.470123 163.217545,275.169952 176.695236,282.625702 
	C197.189392,293.962921 211.065079,310.876892 216.451050,333.813141 
	C218.633759,343.108154 219.634140,352.865753 219.743561,362.429199 
	C220.128601,396.084686 219.815903,429.747681 219.989532,463.406677 
	C220.011780,467.723236 219.012772,469.411041 214.473022,469.069061 
	C209.336578,468.682129 204.130966,468.717041 198.988098,469.059204 
	C194.386124,469.365387 192.970810,467.780304 192.995819,463.126556 
	C193.174805,429.800903 192.989227,396.473358 193.140335,363.147400 
	C193.202805,349.369934 190.964767,336.269653 183.059891,324.725525 
	C180.369125,320.795959 176.760300,317.495087 173.314728,313.658875 
z"/>
<path fill="#FFFEFE" opacity="1.000000" stroke="none" 
	d="
M378.073303,439.171143 
	C346.912048,451.241760 317.962555,448.916870 292.475952,426.705872 
	C278.239685,414.299286 270.912872,397.944214 269.844696,378.877014 
	C268.875641,361.578583 271.998688,345.424866 282.262604,331.112396 
	C295.080719,313.238312 312.509583,303.244720 334.336090,300.767517 
	C353.665588,298.573730 371.828156,301.741486 387.985260,313.005005 
	C403.421783,323.766235 413.632843,338.074493 417.404358,356.918274 
	C421.668976,378.225433 418.683868,398.046356 405.975433,415.761108 
	C398.849304,425.694489 389.639740,433.688263 378.073303,439.171143 
z"/>
</svg>